<svg xmlns="http://www.w3.org/2000/svg" width="1200" height="500"><defs><style type="text/css"><![CDATA[ 
  .bg{ fill: white; }
  text{ fill:#adadad; }
  line, path{ stroke:#adadad; }

 ]]></style></defs><rect class="bg" width="100%" height="100%"></rect><g transform="translate(60,30)"><g transform="translate(0,400)" fill="none" font-size="10" font-family="sans-serif" text-anchor="middle"><path class="domain" stroke="currentColor" d="M0.5,6V0.5H1110.5V6"></path><g class="tick" opacity="1" transform="translate(26.42857142857136,0)"><line stroke="currentColor" y2="6"></line><text fill="currentColor" y="9" dy="0.71em" transform="translate(-10,0)rotate(-45)" style="text-anchor: end;">Dominic Gannaway</text></g><g class="tick" opacity="1" transform="translate(70.47619047619041,0)"><line stroke="currentColor" y2="6"></line><text fill="currentColor" y="9" dy="0.71em" transform="translate(-10,0)rotate(-45)" style="text-anchor: end;">Sebastian Markbåge</text></g><g class="tick" opacity="1" transform="translate(114.52380952380946,0)"><line stroke="currentColor" y2="6"></line><text fill="currentColor" y="9" dy="0.71em" transform="translate(-10,0)rotate(-45)" style="text-anchor: end;">Dan Abramov</text></g><g class="tick" opacity="1" transform="translate(158.57142857142853,0)"><line stroke="currentColor" y2="6"></line><text fill="currentColor" y="9" dy="0.71em" transform="translate(-10,0)rotate(-45)" style="text-anchor: end;">Andrew Clark</text></g><g class="tick" opacity="1" transform="translate(202.61904761904756,0)"><line stroke="currentColor" y2="6"></line><text fill="currentColor" y="9" dy="0.71em" transform="translate(-10,0)rotate(-45)" style="text-anchor: end;">Brandon Dail</text></g><g class="tick" opacity="1" transform="translate(246.6666666666666,0)"><line stroke="currentColor" y2="6"></line><text fill="currentColor" y="9" dy="0.71em" transform="translate(-10,0)rotate(-45)" style="text-anchor: end;">Nicolas Gallagher</text></g><g class="tick" opacity="1" transform="translate(290.71428571428567,0)"><line stroke="currentColor" y2="6"></line><text fill="currentColor" y="9" dy="0.71em" transform="translate(-10,0)rotate(-45)" style="text-anchor: end;">Brian Vaughn</text></g><g class="tick" opacity="1" transform="translate(334.7619047619047,0)"><line stroke="currentColor" y2="6"></line><text fill="currentColor" y="9" dy="0.71em" transform="translate(-10,0)rotate(-45)" style="text-anchor: end;">Timothy Yung</text></g><g class="tick" opacity="1" transform="translate(378.80952380952374,0)"><line stroke="currentColor" y2="6"></line><text fill="currentColor" y="9" dy="0.71em" transform="translate(-10,0)rotate(-45)" style="text-anchor: end;">Nathan Hunzaker</text></g><g class="tick" opacity="1" transform="translate(422.8571428571428,0)"><line stroke="currentColor" y2="6"></line><text fill="currentColor" y="9" dy="0.71em" transform="translate(-10,0)rotate(-45)" style="text-anchor: end;">Sophie Alpert</text></g><g class="tick" opacity="1" transform="translate(466.9047619047618,0)"><line stroke="currentColor" y2="6"></line><text fill="currentColor" y="9" dy="0.71em" transform="translate(-10,0)rotate(-45)" style="text-anchor: end;">Sebastian Markbage</text></g><g class="tick" opacity="1" transform="translate(510.95238095238096,0)"><line stroke="currentColor" y2="6"></line><text fill="currentColor" y="9" dy="0.71em" transform="translate(-10,0)rotate(-45)" style="text-anchor: end;">Flarnie Marchan</text></g><g class="tick" opacity="1" transform="translate(555,0)"><line stroke="currentColor" y2="6"></line><text fill="currentColor" y="9" dy="0.71em" transform="translate(-10,0)rotate(-45)" style="text-anchor: end;">Toru Kobayashi</text></g><g class="tick" opacity="1" transform="translate(599.047619047619,0)"><line stroke="currentColor" y2="6"></line><text fill="currentColor" y="9" dy="0.71em" transform="translate(-10,0)rotate(-45)" style="text-anchor: end;">Ben Alpert</text></g><g class="tick" opacity="1" transform="translate(643.0952380952381,0)"><line stroke="currentColor" y2="6"></line><text fill="currentColor" y="9" dy="0.71em" transform="translate(-10,0)rotate(-45)" style="text-anchor: end;">Paul O’Shannessy</text></g><g class="tick" opacity="1" transform="translate(687.1428571428571,0)"><line stroke="currentColor" y2="6"></line><text fill="currentColor" y="9" dy="0.71em" transform="translate(-10,0)rotate(-45)" style="text-anchor: end;">Christopher Chedeau</text></g><g class="tick" opacity="1" transform="translate(731.1904761904761,0)"><line stroke="currentColor" y2="6"></line><text fill="currentColor" y="9" dy="0.71em" transform="translate(-10,0)rotate(-45)" style="text-anchor: end;">Cheng Lou</text></g><g class="tick" opacity="1" transform="translate(775.2380952380952,0)"><line stroke="currentColor" y2="6"></line><text fill="currentColor" y="9" dy="0.71em" transform="translate(-10,0)rotate(-45)" style="text-anchor: end;">Jim</text></g><g class="tick" opacity="1" transform="translate(819.2857142857142,0)"><line stroke="currentColor" y2="6"></line><text fill="currentColor" y="9" dy="0.71em" transform="translate(-10,0)rotate(-45)" style="text-anchor: end;">Andreas Svensson</text></g><g class="tick" opacity="1" transform="translate(863.3333333333333,0)"><line stroke="currentColor" y2="6"></line><text fill="currentColor" y="9" dy="0.71em" transform="translate(-10,0)rotate(-45)" style="text-anchor: end;">Thomas Aylott</text></g><g class="tick" opacity="1" transform="translate(907.3809523809523,0)"><line stroke="currentColor" y2="6"></line><text fill="currentColor" y="9" dy="0.71em" transform="translate(-10,0)rotate(-45)" style="text-anchor: end;">Ben Newman</text></g><g class="tick" opacity="1" transform="translate(951.4285714285714,0)"><line stroke="currentColor" y2="6"></line><text fill="currentColor" y="9" dy="0.71em" transform="translate(-10,0)rotate(-45)" style="text-anchor: end;">petehunt</text></g><g class="tick" opacity="1" transform="translate(995.4761904761905,0)"><line stroke="currentColor" y2="6"></line><text fill="currentColor" y="9" dy="0.71em" transform="translate(-10,0)rotate(-45)" style="text-anchor: end;">Pete Hunt</text></g><g class="tick" opacity="1" transform="translate(1039.5238095238096,0)"><line stroke="currentColor" y2="6"></line><text fill="currentColor" y="9" dy="0.71em" transform="translate(-10,0)rotate(-45)" style="text-anchor: end;">Tim Yung</text></g><g class="tick" opacity="1" transform="translate(1083.571428571429,0)"><line stroke="currentColor" y2="6"></line><text fill="currentColor" y="9" dy="0.71em" transform="translate(-10,0)rotate(-45)" style="text-anchor: end;">CommitSyncScript</text></g></g><g fill="none" font-size="10" font-family="sans-serif" text-anchor="end"><path class="domain" stroke="currentColor" d="M-6,400.5H0.5V0.5H-6"></path><g class="tick" opacity="1" transform="translate(0,400.5)"><line stroke="currentColor" x2="-6"></line><text fill="currentColor" x="-9" dy="0.32em">0</text></g><g class="tick" opacity="1" transform="translate(0,368.5)"><line stroke="currentColor" x2="-6"></line><text fill="currentColor" x="-9" dy="0.32em">200</text></g><g class="tick" opacity="1" transform="translate(0,336.5)"><line stroke="currentColor" x2="-6"></line><text fill="currentColor" x="-9" dy="0.32em">400</text></g><g class="tick" opacity="1" transform="translate(0,304.5)"><line stroke="currentColor" x2="-6"></line><text fill="currentColor" x="-9" dy="0.32em">600</text></g><g class="tick" opacity="1" transform="translate(0,272.5)"><line stroke="currentColor" x2="-6"></line><text fill="currentColor" x="-9" dy="0.32em">800</text></g><g class="tick" opacity="1" transform="translate(0,240.5)"><line stroke="currentColor" x2="-6"></line><text fill="currentColor" x="-9" dy="0.32em">1,000</text></g><g class="tick" opacity="1" transform="translate(0,208.5)"><line stroke="currentColor" x2="-6"></line><text fill="currentColor" x="-9" dy="0.32em">1,200</text></g><g class="tick" opacity="1" transform="translate(0,176.49999999999997)"><line stroke="currentColor" x2="-6"></line><text fill="currentColor" x="-9" dy="0.32em">1,400</text></g><g class="tick" opacity="1" transform="translate(0,144.5)"><line stroke="currentColor" x2="-6"></line><text fill="currentColor" x="-9" dy="0.32em">1,600</text></g><g class="tick" opacity="1" transform="translate(0,112.5)"><line stroke="currentColor" x2="-6"></line><text fill="currentColor" x="-9" dy="0.32em">1,800</text></g><g class="tick" opacity="1" transform="translate(0,80.5)"><line stroke="currentColor" x2="-6"></line><text fill="currentColor" x="-9" dy="0.32em">2,000</text></g><g class="tick" opacity="1" transform="translate(0,48.5)"><line stroke="currentColor" x2="-6"></line><text fill="currentColor" x="-9" dy="0.32em">2,200</text></g><g class="tick" opacity="1" transform="translate(0,16.5)"><line stroke="currentColor" x2="-6"></line><text fill="currentColor" x="-9" dy="0.32em">2,400</text></g></g><rect x="8.80952380952374" y="372.16" width="35.23809523809524" height="27.839999999999975" fill="#61dafb"></rect><rect x="52.85714285714279" y="351.68" width="35.23809523809524" height="48.31999999999999" fill="#61dafb"></rect><rect x="96.90476190476184" y="233.76" width="35.23809523809524" height="166.24" fill="#61dafb"></rect><rect x="140.9523809523809" y="321.12" width="35.23809523809524" height="78.88" fill="#61dafb"></rect><rect x="184.99999999999994" y="388.48" width="35.23809523809524" height="11.519999999999982" fill="#61dafb"></rect><rect x="229.04761904761898" y="393.44" width="35.23809523809524" height="6.560000000000002" fill="#61dafb"></rect><rect x="273.0952380952381" y="346.08" width="35.23809523809524" height="53.920000000000016" fill="#61dafb"></rect><rect x="317.1428571428571" y="392.8" width="35.23809523809524" height="7.199999999999989" fill="#61dafb"></rect><rect x="361.19047619047615" y="387.68" width="35.23809523809524" height="12.319999999999993" fill="#61dafb"></rect><rect x="405.2380952380952" y="392.64" width="35.23809523809524" height="7.360000000000014" fill="#61dafb"></rect><rect x="449.2857142857142" y="345.44" width="35.23809523809524" height="54.56" fill="#61dafb"></rect><rect x="493.3333333333333" y="391.52" width="35.23809523809524" height="8.480000000000018" fill="#61dafb"></rect><rect x="537.3809523809524" y="391.36" width="35.23809523809524" height="8.639999999999986" fill="#61dafb"></rect><rect x="581.4285714285714" y="217.6" width="35.23809523809524" height="182.4" fill="#61dafb"></rect><rect x="625.4761904761905" y="153.76" width="35.23809523809524" height="246.24" fill="#61dafb"></rect><rect x="669.5238095238095" y="376.16" width="35.23809523809524" height="23.839999999999975" fill="#61dafb"></rect><rect x="713.5714285714286" y="365.92" width="35.23809523809524" height="34.079999999999984" fill="#61dafb"></rect><rect x="757.6190476190476" y="334.24" width="35.23809523809524" height="65.75999999999999" fill="#61dafb"></rect><rect x="801.6666666666666" y="388.8" width="35.23809523809524" height="11.199999999999989" fill="#61dafb"></rect><rect x="845.7142857142857" y="381.76" width="35.23809523809524" height="18.24000000000001" fill="#61dafb"></rect><rect x="889.7619047619047" y="377.76" width="35.23809523809524" height="22.24000000000001" fill="#61dafb"></rect><rect x="933.8095238095239" y="379.84" width="35.23809523809524" height="20.160000000000025" fill="#61dafb"></rect><rect x="977.8571428571429" y="374.4" width="35.23809523809524" height="25.600000000000023" fill="#61dafb"></rect><rect x="1021.9047619047619" y="392.64" width="35.23809523809524" height="7.360000000000014" fill="#61dafb"></rect><rect x="1065.9523809523812" y="384.96" width="35.23809523809524" height="15.04000000000002" fill="#61dafb"></rect></g></svg>