<svg xmlns="http://www.w3.org/2000/svg" width="1200" height="500"><defs><style type="text/css"><![CDATA[ 
  .bg{ fill: white; }
  text{ fill:#adadad; }
  line, path{ stroke:#adadad; }

 ]]></style></defs><rect class="bg" width="100%" height="100%"></rect><g transform="translate(60,30)"><g transform="translate(0,400)" fill="none" font-size="10" font-family="sans-serif" text-anchor="middle"><path class="domain" stroke="currentColor" d="M0.5,6V0.5H1110.5V6"></path><g class="tick" opacity="1" transform="translate(302.72727272727275,0)"><line stroke="currentColor" y2="6"></line><text fill="currentColor" y="9" dy="0.71em" transform="translate(-10,0)rotate(-45)" style="text-anchor: end;">Evan You</text></g><g class="tick" opacity="1" transform="translate(807.2727272727273,0)"><line stroke="currentColor" y2="6"></line><text fill="currentColor" y="9" dy="0.71em" transform="translate(-10,0)rotate(-45)" style="text-anchor: end;">Hanks</text></g></g><g fill="none" font-size="10" font-family="sans-serif" text-anchor="end"><path class="domain" stroke="currentColor" d="M-6,400.5H0.5V0.5H-6"></path><g class="tick" opacity="1" transform="translate(0,400.5)"><line stroke="currentColor" x2="-6"></line><text fill="currentColor" x="-9" dy="0.32em">0</text></g><g class="tick" opacity="1" transform="translate(0,368.5)"><line stroke="currentColor" x2="-6"></line><text fill="currentColor" x="-9" dy="0.32em">200</text></g><g class="tick" opacity="1" transform="translate(0,336.5)"><line stroke="currentColor" x2="-6"></line><text fill="currentColor" x="-9" dy="0.32em">400</text></g><g class="tick" opacity="1" transform="translate(0,304.5)"><line stroke="currentColor" x2="-6"></line><text fill="currentColor" x="-9" dy="0.32em">600</text></g><g class="tick" opacity="1" transform="translate(0,272.5)"><line stroke="currentColor" x2="-6"></line><text fill="currentColor" x="-9" dy="0.32em">800</text></g><g class="tick" opacity="1" transform="translate(0,240.5)"><line stroke="currentColor" x2="-6"></line><text fill="currentColor" x="-9" dy="0.32em">1,000</text></g><g class="tick" opacity="1" transform="translate(0,208.5)"><line stroke="currentColor" x2="-6"></line><text fill="currentColor" x="-9" dy="0.32em">1,200</text></g><g class="tick" opacity="1" transform="translate(0,176.49999999999997)"><line stroke="currentColor" x2="-6"></line><text fill="currentColor" x="-9" dy="0.32em">1,400</text></g><g class="tick" opacity="1" transform="translate(0,144.5)"><line stroke="currentColor" x2="-6"></line><text fill="currentColor" x="-9" dy="0.32em">1,600</text></g><g class="tick" opacity="1" transform="translate(0,112.5)"><line stroke="currentColor" x2="-6"></line><text fill="currentColor" x="-9" dy="0.32em">1,800</text></g><g class="tick" opacity="1" transform="translate(0,80.5)"><line stroke="currentColor" x2="-6"></line><text fill="currentColor" x="-9" dy="0.32em">2,000</text></g><g class="tick" opacity="1" transform="translate(0,48.5)"><line stroke="currentColor" x2="-6"></line><text fill="currentColor" x="-9" dy="0.32em">2,200</text></g><g class="tick" opacity="1" transform="translate(0,16.5)"><line stroke="currentColor" x2="-6"></line><text fill="currentColor" x="-9" dy="0.32em">2,400</text></g></g><rect x="100.90909090909093" y="63.839999999999975" width="403.6363636363636" height="336.16" fill="#42b983"></rect><rect x="605.4545454545455" y="393.28" width="403.6363636363636" height="6.720000000000027" fill="#42b983"></rect></g></svg>