<svg xmlns="http://www.w3.org/2000/svg" width="1200" height="500"><defs><style type="text/css"><![CDATA[ 
  .bg{ fill: white; }
  text{ fill:#adadad; }
  line, path{ stroke:#adadad; }

 ]]></style></defs><rect class="bg" width="100%" height="100%"></rect><g transform="translate(60,30)"><g transform="translate(0,400)" fill="none" font-size="10" font-family="sans-serif" text-anchor="middle"><path class="domain" stroke="currentColor" d="M0.5,6V0.5H1110.5V6"></path><g class="tick" opacity="1" transform="translate(14.110169491525463,0)"><line stroke="currentColor" y2="6"></line><text fill="currentColor" y="9" dy="0.71em" transform="translate(-10,0)rotate(-45)" style="text-anchor: end;">Alex Eagle</text></g><g class="tick" opacity="1" transform="translate(37.627118644067835,0)"><line stroke="currentColor" y2="6"></line><text fill="currentColor" y="9" dy="0.71em" transform="translate(-10,0)rotate(-45)" style="text-anchor: end;">Alex Rickabaugh</text></g><g class="tick" opacity="1" transform="translate(61.14406779661021,0)"><line stroke="currentColor" y2="6"></line><text fill="currentColor" y="9" dy="0.71em" transform="translate(-10,0)rotate(-45)" style="text-anchor: end;">Judy Bogart</text></g><g class="tick" opacity="1" transform="translate(84.6610169491526,0)"><line stroke="currentColor" y2="6"></line><text fill="currentColor" y="9" dy="0.71em" transform="translate(-10,0)rotate(-45)" style="text-anchor: end;">Kapunahele Wong</text></g><g class="tick" opacity="1" transform="translate(108.17796610169496,0)"><line stroke="currentColor" y2="6"></line><text fill="currentColor" y="9" dy="0.71em" transform="translate(-10,0)rotate(-45)" style="text-anchor: end;">Pete Bacon Darwin</text></g><g class="tick" opacity="1" transform="translate(131.69491525423732,0)"><line stroke="currentColor" y2="6"></line><text fill="currentColor" y="9" dy="0.71em" transform="translate(-10,0)rotate(-45)" style="text-anchor: end;">JoostK</text></g><g class="tick" opacity="1" transform="translate(155.2118644067797,0)"><line stroke="currentColor" y2="6"></line><text fill="currentColor" y="9" dy="0.71em" transform="translate(-10,0)rotate(-45)" style="text-anchor: end;">Greg Magolan</text></g><g class="tick" opacity="1" transform="translate(178.72881355932208,0)"><line stroke="currentColor" y2="6"></line><text fill="currentColor" y="9" dy="0.71em" transform="translate(-10,0)rotate(-45)" style="text-anchor: end;">Pawel Kozlowski</text></g><g class="tick" opacity="1" transform="translate(202.24576271186444,0)"><line stroke="currentColor" y2="6"></line><text fill="currentColor" y="9" dy="0.71em" transform="translate(-10,0)rotate(-45)" style="text-anchor: end;">Andrew Kushnir</text></g><g class="tick" opacity="1" transform="translate(225.7627118644068,0)"><line stroke="currentColor" y2="6"></line><text fill="currentColor" y="9" dy="0.71em" transform="translate(-10,0)rotate(-45)" style="text-anchor: end;">George Kalpakas</text></g><g class="tick" opacity="1" transform="translate(249.27966101694918,0)"><line stroke="currentColor" y2="6"></line><text fill="currentColor" y="9" dy="0.71em" transform="translate(-10,0)rotate(-45)" style="text-anchor: end;">Jason Aden</text></g><g class="tick" opacity="1" transform="translate(272.7966101694916,0)"><line stroke="currentColor" y2="6"></line><text fill="currentColor" y="9" dy="0.71em" transform="translate(-10,0)rotate(-45)" style="text-anchor: end;">Olivier Combe</text></g><g class="tick" opacity="1" transform="translate(296.313559322034,0)"><line stroke="currentColor" y2="6"></line><text fill="currentColor" y="9" dy="0.71em" transform="translate(-10,0)rotate(-45)" style="text-anchor: end;">Kristiyan Kostadinov</text></g><g class="tick" opacity="1" transform="translate(319.83050847457633,0)"><line stroke="currentColor" y2="6"></line><text fill="currentColor" y="9" dy="0.71em" transform="translate(-10,0)rotate(-45)" style="text-anchor: end;">Kara Erickson</text></g><g class="tick" opacity="1" transform="translate(343.34745762711873,0)"><line stroke="currentColor" y2="6"></line><text fill="currentColor" y="9" dy="0.71em" transform="translate(-10,0)rotate(-45)" style="text-anchor: end;">Paul Gschwendtner</text></g><g class="tick" opacity="1" transform="translate(366.86440677966107,0)"><line stroke="currentColor" y2="6"></line><text fill="currentColor" y="9" dy="0.71em" transform="translate(-10,0)rotate(-45)" style="text-anchor: end;">Misko Hevery</text></g><g class="tick" opacity="1" transform="translate(390.38135593220346,0)"><line stroke="currentColor" y2="6"></line><text fill="currentColor" y="9" dy="0.71em" transform="translate(-10,0)rotate(-45)" style="text-anchor: end;">Stefanie Fluin</text></g><g class="tick" opacity="1" transform="translate(413.89830508474586,0)"><line stroke="currentColor" y2="6"></line><text fill="currentColor" y="9" dy="0.71em" transform="translate(-10,0)rotate(-45)" style="text-anchor: end;">Alan Agius</text></g><g class="tick" opacity="1" transform="translate(437.4152542372882,0)"><line stroke="currentColor" y2="6"></line><text fill="currentColor" y="9" dy="0.71em" transform="translate(-10,0)rotate(-45)" style="text-anchor: end;">Keen Yee Liau</text></g><g class="tick" opacity="1" transform="translate(460.9322033898306,0)"><line stroke="currentColor" y2="6"></line><text fill="currentColor" y="9" dy="0.71em" transform="translate(-10,0)rotate(-45)" style="text-anchor: end;">Filipe Silva</text></g><g class="tick" opacity="1" transform="translate(484.44915254237293,0)"><line stroke="currentColor" y2="6"></line><text fill="currentColor" y="9" dy="0.71em" transform="translate(-10,0)rotate(-45)" style="text-anchor: end;">Ben Lesh</text></g><g class="tick" opacity="1" transform="translate(507.9661016949153,0)"><line stroke="currentColor" y2="6"></line><text fill="currentColor" y="9" dy="0.71em" transform="translate(-10,0)rotate(-45)" style="text-anchor: end;">cexbrayat</text></g><g class="tick" opacity="1" transform="translate(531.4830508474577,0)"><line stroke="currentColor" y2="6"></line><text fill="currentColor" y="9" dy="0.71em" transform="translate(-10,0)rotate(-45)" style="text-anchor: end;">Jeremy Elbourn</text></g><g class="tick" opacity="1" transform="translate(555,0)"><line stroke="currentColor" y2="6"></line><text fill="currentColor" y="9" dy="0.71em" transform="translate(-10,0)rotate(-45)" style="text-anchor: end;">Miško Hevery</text></g><g class="tick" opacity="1" transform="translate(578.5169491525425,0)"><line stroke="currentColor" y2="6"></line><text fill="currentColor" y="9" dy="0.71em" transform="translate(-10,0)rotate(-45)" style="text-anchor: end;">Vikram Subramanian</text></g><g class="tick" opacity="1" transform="translate(602.0338983050848,0)"><line stroke="currentColor" y2="6"></line><text fill="currentColor" y="9" dy="0.71em" transform="translate(-10,0)rotate(-45)" style="text-anchor: end;">Matias Niemelä</text></g><g class="tick" opacity="1" transform="translate(625.5508474576271,0)"><line stroke="currentColor" y2="6"></line><text fill="currentColor" y="9" dy="0.71em" transform="translate(-10,0)rotate(-45)" style="text-anchor: end;">Rado Kirov</text></g><g class="tick" opacity="1" transform="translate(649.0677966101695,0)"><line stroke="currentColor" y2="6"></line><text fill="currentColor" y="9" dy="0.71em" transform="translate(-10,0)rotate(-45)" style="text-anchor: end;">Rob Wormald</text></g><g class="tick" opacity="1" transform="translate(672.5847457627119,0)"><line stroke="currentColor" y2="6"></line><text fill="currentColor" y="9" dy="0.71em" transform="translate(-10,0)rotate(-45)" style="text-anchor: end;">Brandon Roberts</text></g><g class="tick" opacity="1" transform="translate(696.1016949152543,0)"><line stroke="currentColor" y2="6"></line><text fill="currentColor" y="9" dy="0.71em" transform="translate(-10,0)rotate(-45)" style="text-anchor: end;">Igor Minar</text></g><g class="tick" opacity="1" transform="translate(719.6186440677966,0)"><line stroke="currentColor" y2="6"></line><text fill="currentColor" y="9" dy="0.71em" transform="translate(-10,0)rotate(-45)" style="text-anchor: end;">Marc Laval</text></g><g class="tick" opacity="1" transform="translate(743.135593220339,0)"><line stroke="currentColor" y2="6"></line><text fill="currentColor" y="9" dy="0.71em" transform="translate(-10,0)rotate(-45)" style="text-anchor: end;">Kara</text></g><g class="tick" opacity="1" transform="translate(766.6525423728814,0)"><line stroke="currentColor" y2="6"></line><text fill="currentColor" y="9" dy="0.71em" transform="translate(-10,0)rotate(-45)" style="text-anchor: end;">Jeff Cross</text></g><g class="tick" opacity="1" transform="translate(790.1694915254237,0)"><line stroke="currentColor" y2="6"></line><text fill="currentColor" y="9" dy="0.71em" transform="translate(-10,0)rotate(-45)" style="text-anchor: end;">Victor Berchet</text></g><g class="tick" opacity="1" transform="translate(813.6864406779662,0)"><line stroke="currentColor" y2="6"></line><text fill="currentColor" y="9" dy="0.71em" transform="translate(-10,0)rotate(-45)" style="text-anchor: end;">Martin Probst</text></g><g class="tick" opacity="1" transform="translate(837.2033898305085,0)"><line stroke="currentColor" y2="6"></line><text fill="currentColor" y="9" dy="0.71em" transform="translate(-10,0)rotate(-45)" style="text-anchor: end;">Peter Bacon Darwin</text></g><g class="tick" opacity="1" transform="translate(860.7203389830509,0)"><line stroke="currentColor" y2="6"></line><text fill="currentColor" y="9" dy="0.71em" transform="translate(-10,0)rotate(-45)" style="text-anchor: end;">Georgios Kalpakas</text></g><g class="tick" opacity="1" transform="translate(884.2372881355933,0)"><line stroke="currentColor" y2="6"></line><text fill="currentColor" y="9" dy="0.71em" transform="translate(-10,0)rotate(-45)" style="text-anchor: end;">Chuck Jazdzewski</text></g><g class="tick" opacity="1" transform="translate(907.7542372881356,0)"><line stroke="currentColor" y2="6"></line><text fill="currentColor" y="9" dy="0.71em" transform="translate(-10,0)rotate(-45)" style="text-anchor: end;">Ward Bell</text></g><g class="tick" opacity="1" transform="translate(931.271186440678,0)"><line stroke="currentColor" y2="6"></line><text fill="currentColor" y="9" dy="0.71em" transform="translate(-10,0)rotate(-45)" style="text-anchor: end;">Jesus Rodriguez</text></g><g class="tick" opacity="1" transform="translate(954.7881355932203,0)"><line stroke="currentColor" y2="6"></line><text fill="currentColor" y="9" dy="0.71em" transform="translate(-10,0)rotate(-45)" style="text-anchor: end;">vsavkin</text></g><g class="tick" opacity="1" transform="translate(978.3050847457628,0)"><line stroke="currentColor" y2="6"></line><text fill="currentColor" y="9" dy="0.71em" transform="translate(-10,0)rotate(-45)" style="text-anchor: end;">Tobias Bosch</text></g><g class="tick" opacity="1" transform="translate(1001.8220338983051,0)"><line stroke="currentColor" y2="6"></line><text fill="currentColor" y="9" dy="0.71em" transform="translate(-10,0)rotate(-45)" style="text-anchor: end;">Dzmitry Shylovich</text></g><g class="tick" opacity="1" transform="translate(1025.3389830508474,0)"><line stroke="currentColor" y2="6"></line><text fill="currentColor" y="9" dy="0.71em" transform="translate(-10,0)rotate(-45)" style="text-anchor: end;">Julie Ralph</text></g><g class="tick" opacity="1" transform="translate(1048.85593220339,0)"><line stroke="currentColor" y2="6"></line><text fill="currentColor" y="9" dy="0.71em" transform="translate(-10,0)rotate(-45)" style="text-anchor: end;">Brian Ford</text></g><g class="tick" opacity="1" transform="translate(1072.3728813559323,0)"><line stroke="currentColor" y2="6"></line><text fill="currentColor" y="9" dy="0.71em" transform="translate(-10,0)rotate(-45)" style="text-anchor: end;">Tim Blasi</text></g><g class="tick" opacity="1" transform="translate(1095.8898305084747,0)"><line stroke="currentColor" y2="6"></line><text fill="currentColor" y="9" dy="0.71em" transform="translate(-10,0)rotate(-45)" style="text-anchor: end;">Yegor Jbanov</text></g></g><g fill="none" font-size="10" font-family="sans-serif" text-anchor="end"><path class="domain" stroke="currentColor" d="M-6,400.5H0.5V0.5H-6"></path><g class="tick" opacity="1" transform="translate(0,400.5)"><line stroke="currentColor" x2="-6"></line><text fill="currentColor" x="-9" dy="0.32em">0</text></g><g class="tick" opacity="1" transform="translate(0,368.5)"><line stroke="currentColor" x2="-6"></line><text fill="currentColor" x="-9" dy="0.32em">200</text></g><g class="tick" opacity="1" transform="translate(0,336.5)"><line stroke="currentColor" x2="-6"></line><text fill="currentColor" x="-9" dy="0.32em">400</text></g><g class="tick" opacity="1" transform="translate(0,304.5)"><line stroke="currentColor" x2="-6"></line><text fill="currentColor" x="-9" dy="0.32em">600</text></g><g class="tick" opacity="1" transform="translate(0,272.5)"><line stroke="currentColor" x2="-6"></line><text fill="currentColor" x="-9" dy="0.32em">800</text></g><g class="tick" opacity="1" transform="translate(0,240.5)"><line stroke="currentColor" x2="-6"></line><text fill="currentColor" x="-9" dy="0.32em">1,000</text></g><g class="tick" opacity="1" transform="translate(0,208.5)"><line stroke="currentColor" x2="-6"></line><text fill="currentColor" x="-9" dy="0.32em">1,200</text></g><g class="tick" opacity="1" transform="translate(0,176.49999999999997)"><line stroke="currentColor" x2="-6"></line><text fill="currentColor" x="-9" dy="0.32em">1,400</text></g><g class="tick" opacity="1" transform="translate(0,144.5)"><line stroke="currentColor" x2="-6"></line><text fill="currentColor" x="-9" dy="0.32em">1,600</text></g><g class="tick" opacity="1" transform="translate(0,112.5)"><line stroke="currentColor" x2="-6"></line><text fill="currentColor" x="-9" dy="0.32em">1,800</text></g><g class="tick" opacity="1" transform="translate(0,80.5)"><line stroke="currentColor" x2="-6"></line><text fill="currentColor" x="-9" dy="0.32em">2,000</text></g><g class="tick" opacity="1" transform="translate(0,48.5)"><line stroke="currentColor" x2="-6"></line><text fill="currentColor" x="-9" dy="0.32em">2,200</text></g><g class="tick" opacity="1" transform="translate(0,16.5)"><line stroke="currentColor" x2="-6"></line><text fill="currentColor" x="-9" dy="0.32em">2,400</text></g></g><rect x="4.703389830508513" y="324.64" width="18.8135593220339" height="75.36000000000001" fill="#b80d29"></rect><rect x="28.220338983050887" y="328.64" width="18.8135593220339" height="71.36000000000001" fill="#b80d29"></rect><rect x="51.73728813559326" y="386.24" width="18.8135593220339" height="13.759999999999991" fill="#b80d29"></rect><rect x="75.25423728813564" y="389.28" width="18.8135593220339" height="10.720000000000027" fill="#b80d29"></rect><rect x="98.77118644067801" y="324.15999999999997" width="18.8135593220339" height="75.84000000000003" fill="#b80d29"></rect><rect x="122.28813559322037" y="389.28" width="18.8135593220339" height="10.720000000000027" fill="#b80d29"></rect><rect x="145.80508474576277" y="382.08" width="18.8135593220339" height="17.920000000000016" fill="#b80d29"></rect><rect x="169.32203389830514" y="339.52" width="18.8135593220339" height="60.48000000000002" fill="#b80d29"></rect><rect x="192.8389830508475" y="381.12" width="18.8135593220339" height="18.879999999999995" fill="#b80d29"></rect><rect x="216.35593220338987" y="300.96000000000004" width="18.8135593220339" height="99.03999999999996" fill="#b80d29"></rect><rect x="239.87288135593224" y="372.8" width="18.8135593220339" height="27.19999999999999" fill="#b80d29"></rect><rect x="263.38983050847463" y="373.28" width="18.8135593220339" height="26.720000000000027" fill="#b80d29"></rect><rect x="286.906779661017" y="389.28" width="18.8135593220339" height="10.720000000000027" fill="#b80d29"></rect><rect x="310.42372881355936" y="350.88" width="18.8135593220339" height="49.120000000000005" fill="#b80d29"></rect><rect x="333.94067796610176" y="369.12" width="18.8135593220339" height="30.879999999999995" fill="#b80d29"></rect><rect x="357.4576271186441" y="352.48" width="18.8135593220339" height="47.51999999999998" fill="#b80d29"></rect><rect x="380.9745762711865" y="385.28" width="18.8135593220339" height="14.720000000000027" fill="#b80d29"></rect><rect x="404.4915254237289" y="390.24" width="18.8135593220339" height="9.759999999999991" fill="#b80d29"></rect><rect x="428.0084745762712" y="385.28" width="18.8135593220339" height="14.720000000000027" fill="#b80d29"></rect><rect x="451.5254237288136" y="387.84" width="18.8135593220339" height="12.160000000000025" fill="#b80d29"></rect><rect x="475.04237288135596" y="384.64" width="18.8135593220339" height="15.360000000000014" fill="#b80d29"></rect><rect x="498.55932203389835" y="392.32" width="18.8135593220339" height="7.680000000000007" fill="#b80d29"></rect><rect x="522.0762711864407" y="391.68" width="18.8135593220339" height="8.319999999999993" fill="#b80d29"></rect><rect x="545.5932203389831" y="372" width="18.8135593220339" height="28" fill="#b80d29"></rect><rect x="569.1101694915255" y="390.72" width="18.8135593220339" height="9.279999999999973" fill="#b80d29"></rect><rect x="592.6271186440679" y="339.04" width="18.8135593220339" height="60.95999999999998" fill="#b80d29"></rect><rect x="616.1440677966102" y="382.24" width="18.8135593220339" height="17.75999999999999" fill="#b80d29"></rect><rect x="639.6610169491526" y="389.12" width="18.8135593220339" height="10.879999999999995" fill="#b80d29"></rect><rect x="663.177966101695" y="388.16" width="18.8135593220339" height="11.839999999999975" fill="#b80d29"></rect><rect x="686.6949152542373" y="283.04" width="18.8135593220339" height="116.95999999999998" fill="#b80d29"></rect><rect x="710.2118644067797" y="356.64" width="18.8135593220339" height="43.360000000000014" fill="#b80d29"></rect><rect x="733.7288135593221" y="392.32" width="18.8135593220339" height="7.680000000000007" fill="#b80d29"></rect><rect x="757.2457627118645" y="383.52" width="18.8135593220339" height="16.480000000000018" fill="#b80d29"></rect><rect x="780.7627118644068" y="263.04" width="18.8135593220339" height="136.95999999999998" fill="#b80d29"></rect><rect x="804.2796610169493" y="383.04" width="18.8135593220339" height="16.95999999999998" fill="#b80d29"></rect><rect x="827.7966101694916" y="313.92" width="18.8135593220339" height="86.07999999999998" fill="#b80d29"></rect><rect x="851.3135593220339" y="364.8" width="18.8135593220339" height="35.19999999999999" fill="#b80d29"></rect><rect x="874.8305084745764" y="349.12" width="18.8135593220339" height="50.879999999999995" fill="#b80d29"></rect><rect x="898.3474576271187" y="377.12" width="18.8135593220339" height="22.879999999999995" fill="#b80d29"></rect><rect x="921.8644067796611" y="393.28" width="18.8135593220339" height="6.720000000000027" fill="#b80d29"></rect><rect x="945.3813559322034" y="265.6" width="18.8135593220339" height="134.39999999999998" fill="#b80d29"></rect><rect x="968.8983050847459" y="277.91999999999996" width="18.8135593220339" height="122.08000000000004" fill="#b80d29"></rect><rect x="992.4152542372882" y="381.6" width="18.8135593220339" height="18.399999999999977" fill="#b80d29"></rect><rect x="1015.9322033898305" y="388.32" width="18.8135593220339" height="11.680000000000007" fill="#b80d29"></rect><rect x="1039.449152542373" y="376.32" width="18.8135593220339" height="23.680000000000007" fill="#b80d29"></rect><rect x="1062.9661016949153" y="365.6" width="18.8135593220339" height="34.39999999999998" fill="#b80d29"></rect><rect x="1086.4830508474577" y="383.36" width="18.8135593220339" height="16.639999999999986" fill="#b80d29"></rect></g></svg>